<?xml version="1.0" encoding="UTF-8"?>
<svg width="12px" height="19px" viewBox="0 0 12 19" version="1.1" xmlns="http://www.w3.org/2000/svg" xmlns:xlink="http://www.w3.org/1999/xlink">
    <!-- Generator: Sketch 48.2 (47327) - http://www.bohemiancoding.com/sketch -->
    <title>Page 1</title>
    <desc>Created with Sketch.</desc>
    <defs></defs>
    <g id="Settings" stroke="none" stroke-width="1" fill="none" fill-rule="evenodd" transform="translate(-191.000000, -270.000000)">
        <path d="M204.187354,276.75 L204.187354,274.92383 C204.187354,274.666014 204.099532,274.447593 203.923888,274.268554 C203.748242,274.089518 203.540985,274 203.302108,274 L188.906323,274 C188.653394,274 188.439111,274.089518 188.263466,274.268554 C188.087821,274.447593 188,274.666014 188,274.92383 L188,284.097656 C188,284.341147 188.087821,284.552408 188.263466,284.731445 C188.439111,284.910483 188.653394,285 188.906323,285 L203.302108,285 C203.540985,285 203.748242,284.910483 203.923888,284.731445 C204.099532,284.552408 204.187354,284.341147 204.187354,284.097656 L204.187354,282.25 L206,282.25 L206,276.75 L204.187354,276.75 Z M202.395786,276.75 L202.395786,283.173828 L200.604215,283.173828 L200.604215,275.847656 L202.395786,275.847656 L202.395786,276.75 Z" id="Page-1" fill="#BBBBBB" transform="translate(197.000000, 279.500000) rotate(-90.000000) translate(-197.000000, -279.500000) "></path>
    </g>
</svg>