<?xml version="1.0" encoding="UTF-8"?>
<svg width="43px" height="43px" viewBox="0 0 43 43" version="1.1" xmlns="http://www.w3.org/2000/svg" xmlns:xlink="http://www.w3.org/1999/xlink">
    <!-- Generator: Sketch 48.2 (47327) - http://www.bohemiancoding.com/sketch -->
    <title>Page 1</title>
    <desc>Created with Sketch.</desc>
    <defs></defs>
    <g id="Settings-Copy" stroke="none" stroke-width="1" fill="none" fill-rule="evenodd" transform="translate(-139.000000, -697.000000)">
        <path d="M160.5,697 C157.528439,697 154.739001,697.561374 152.131604,698.684134 C149.524207,699.806894 147.251872,701.337902 145.314531,703.277214 C143.377192,705.216525 141.840453,707.491172 140.704268,710.101221 C139.568084,712.711271 139,715.503545 139,718.47813 C139,721.452714 139.568084,724.244989 140.704268,726.855038 C141.840453,729.465087 143.377192,731.739734 145.314531,733.679046 C147.251872,735.618355 149.524207,737.156658 152.131604,738.293998 C154.739001,739.431338 157.528439,740 160.5,740 C163.471561,740 166.260999,739.431338 168.868396,738.293998 C171.475793,737.156658 173.748128,735.618355 175.685469,733.679046 C177.62281,731.739734 179.159544,729.465087 180.295729,726.855038 C181.431919,724.244989 182,721.452714 182,718.47813 C182,715.503545 181.431919,712.711271 180.295729,710.101221 C179.159544,707.491172 177.62281,705.216525 175.685469,703.277214 C173.748128,701.337902 171.475793,699.806894 168.868396,698.684134 C166.260999,697.561374 163.471561,697 160.5,697 Z M160.5,735.494405 C158.140233,735.494405 155.933448,735.049683 153.879572,734.160223 C151.825702,733.270764 150.026772,732.060539 148.482721,730.529504 C146.938675,728.998468 145.722398,727.197708 144.833843,725.127163 C143.945287,723.056617 143.501016,720.840297 143.501016,718.47813 C143.501016,716.145122 143.945287,713.943383 144.833843,711.872837 C145.722398,709.802298 146.938675,707.994248 148.482721,706.448626 C150.026772,704.90301 151.825702,703.685495 153.879572,702.796036 C155.933448,701.906578 158.140233,701.461857 160.5,701.461857 C162.859767,701.461857 165.066552,701.906578 167.120428,702.796036 C169.174298,703.685495 170.973228,704.90301 172.517279,706.448626 C174.061325,707.994248 175.277602,709.802298 176.166157,711.872837 C177.054712,713.943383 177.498981,716.145122 177.498981,718.47813 C177.498981,720.840297 177.054712,723.056617 176.166157,725.127163 C175.277602,727.197708 174.061325,728.998468 172.517279,730.529504 C170.973228,732.060539 169.174298,733.270764 167.120428,734.160223 C165.066552,735.049683 162.859767,735.494405 160.5,735.494405 Z M166.093496,710.079351 C165.161245,710.079351 164.367382,710.465751 163.711892,711.238556 C163.056401,712.011367 162.728661,712.937265 162.728661,714.016278 C162.728661,715.095292 163.056401,716.0139 163.711892,716.772125 C164.367382,717.530355 165.161245,717.909465 166.093496,717.909465 C167.025747,717.909465 167.81961,717.530355 168.4751,716.772125 C169.130591,716.0139 169.458331,715.095292 169.458331,714.016278 C169.458331,712.937265 169.130591,712.011367 168.4751,711.238556 C167.81961,710.465751 167.025747,710.079351 166.093496,710.079351 Z M154.906504,717.909465 C155.838761,717.909465 156.632618,717.530355 157.288108,716.772125 C157.943599,716.0139 158.271339,715.095292 158.271339,714.016278 C158.271339,712.937265 157.943599,712.011367 157.288108,711.238556 C156.632618,710.465751 155.838761,710.079351 154.906504,710.079351 C153.974247,710.079351 153.18039,710.465751 152.5249,711.238556 C151.869409,712.011367 151.541669,712.937265 151.541669,714.016278 C151.541669,715.095292 151.869409,716.0139 152.5249,716.772125 C153.18039,717.530355 153.974247,717.909465 154.906504,717.909465 Z M167.229675,723.508651 L153.770325,723.508651 C153.333333,723.508651 152.947326,723.67633 152.612298,724.011699 C152.27727,724.347067 152.109756,724.748047 152.109756,725.21465 C152.109756,725.681253 152.27727,726.074942 152.612298,726.395725 C152.947326,726.716514 153.333333,726.876908 153.770325,726.876908 L167.229675,726.876908 C167.666667,726.876908 168.052674,726.716514 168.387702,726.395725 C168.72273,726.074942 168.890244,725.681253 168.890244,725.21465 C168.890244,724.748047 168.730013,724.347067 168.40955,724.011699 C168.089093,723.67633 167.695803,723.508651 167.229675,723.508651 Z" id="Page-1" fill="#363636"></path>
    </g>
</svg>