<?xml version="1.0" encoding="UTF-8"?>
<svg width="26px" height="26px" viewBox="0 0 26 26" version="1.1" xmlns="http://www.w3.org/2000/svg" xmlns:xlink="http://www.w3.org/1999/xlink">
    <!-- Generator: Sketch 48.2 (47327) - http://www.bohemiancoding.com/sketch -->
    <title>Page 1</title>
    <desc>Created with Sketch.</desc>
    <defs>
        <linearGradient x1="53.0632198%" y1="0%" x2="53.0632198%" y2="93.9356361%" id="linearGradient-1">
            <stop stop-color="#7466FF" offset="0%"></stop>
            <stop stop-color="#5646F5" offset="100%"></stop>
        </linearGradient>
    </defs>
    <g id="Blockly" stroke="none" stroke-width="1" fill="none" fill-rule="evenodd" transform="translate(-320.000000, -614.000000)">
        <g id="down-nav-copy-3" transform="translate(-1.000000, 596.000000)" fill="url(#linearGradient-1)">
            <path d="M327.5,21.25 C327.5,20.318329 327.808747,19.5437532 328.42625,18.92625 C329.043753,18.3087468 329.818329,18 330.75,18 C331.681671,18 332.456247,18.3087468 333.07375,18.92625 C333.691253,19.5437532 334,20.318329 334,21.25 C334,21.5316678 333.95125,21.7970822 333.85375,22.04625 C333.75625,22.2954177 333.620835,22.5770822 333.4475,22.89125 C333.274164,23.2054177 333.155,23.4383322 333.09,23.59 C333.025,23.72 332.9925,24.0233322 332.9925,24.5 L340.5,24.5 L340.5,32.0075 C340.976668,32.0075 341.28,31.975 341.41,31.91 C341.561668,31.845 341.794582,31.7258355 342.10875,31.5525 C342.422918,31.3791645 342.704582,31.24375 342.95375,31.14625 C343.202918,31.04875 343.468332,31 343.75,31 C344.681671,31 345.456247,31.3087467 346.07375,31.92625 C346.691253,32.5437533 347,33.318329 347,34.25 C347,35.181671 346.691253,35.9562467 346.07375,36.57375 C345.456247,37.1912533 344.681671,37.5 343.75,37.5 C343.468332,37.5 343.202918,37.45125 342.95375,37.35375 C342.704582,37.25625 342.422918,37.1208355 342.10875,36.9475 C341.794582,36.7741645 341.561668,36.655 341.41,36.59 C341.28,36.525 340.976668,36.4925 340.5,36.4925 L340.5,44 L332.9925,44 C332.9925,43.523331 333.025,43.2200007 333.09,43.09 C333.155,42.9383326 333.274164,42.7054184 333.4475,42.39125 C333.620835,42.0770819 333.75625,41.7954177 333.85375,41.54625 C333.95125,41.2970819 334,41.0316681 334,40.75 C334,39.818329 333.691253,39.0437533 333.07375,38.42625 C332.456247,37.8087467 331.681671,37.5 330.75,37.5 C329.818329,37.5 329.043753,37.8087467 328.42625,38.42625 C327.808747,39.0437533 327.5,39.818329 327.5,40.75 C327.5,41.0316681 327.54875,41.2970819 327.64625,41.54625 C327.74375,41.7954177 327.879165,42.0770819 328.0525,42.39125 C328.225836,42.7054184 328.345,42.9383326 328.41,43.09 C328.475,43.2200007 328.5075,43.523331 328.5075,44 L321,44 L321,24.5 L328.5075,24.5 C328.5075,24.0233322 328.475,23.72 328.41,23.59 C328.345,23.4383322 328.225836,23.2054177 328.0525,22.89125 C327.879165,22.5770822 327.74375,22.2954177 327.64625,22.04625 C327.54875,21.7970822 327.5,21.5316678 327.5,21.25 Z" id="Page-1"></path>
        </g>
    </g>
</svg>