<?xml version="1.0" encoding="UTF-8"?>
<svg width="26px" height="26px" viewBox="0 0 26 26" version="1.1" xmlns="http://www.w3.org/2000/svg" xmlns:xlink="http://www.w3.org/1999/xlink">
    <!-- Generator: Sketch 48.2 (47327) - http://www.bohemiancoding.com/sketch -->
    <title>Page 1</title>
    <desc>Created with Sketch.</desc>
    <defs></defs>
    <g id="Home" stroke="none" stroke-width="1" fill="none" fill-rule="evenodd" transform="translate(-302.000000, -622.000000)">
        <g id="down-nav" transform="translate(-2.000000, 597.000000)" fill="#5C5C5C">
            <path d="M310.5,28.25 C310.5,27.318329 310.808747,26.5437532 311.42625,25.92625 C312.043753,25.3087468 312.818329,25 313.75,25 C314.681671,25 315.456247,25.3087468 316.07375,25.92625 C316.691253,26.5437532 317,27.318329 317,28.25 C317,28.5316678 316.95125,28.7970822 316.85375,29.04625 C316.75625,29.2954177 316.620835,29.5770822 316.4475,29.89125 C316.274164,30.2054177 316.155,30.4383322 316.09,30.59 C316.025,30.72 315.9925,31.0233322 315.9925,31.5 L323.5,31.5 L323.5,39.0075 C323.976668,39.0075 324.28,38.975 324.41,38.91 C324.561668,38.845 324.794582,38.7258355 325.10875,38.5525 C325.422918,38.3791645 325.704582,38.24375 325.95375,38.14625 C326.202918,38.04875 326.468332,38 326.75,38 C327.681671,38 328.456247,38.3087467 329.07375,38.92625 C329.691253,39.5437533 330,40.318329 330,41.25 C330,42.181671 329.691253,42.9562467 329.07375,43.57375 C328.456247,44.1912533 327.681671,44.5 326.75,44.5 C326.468332,44.5 326.202918,44.45125 325.95375,44.35375 C325.704582,44.25625 325.422918,44.1208355 325.10875,43.9475 C324.794582,43.7741645 324.561668,43.655 324.41,43.59 C324.28,43.525 323.976668,43.4925 323.5,43.4925 L323.5,51 L315.9925,51 C315.9925,50.523331 316.025,50.2200007 316.09,50.09 C316.155,49.9383326 316.274164,49.7054184 316.4475,49.39125 C316.620835,49.0770819 316.75625,48.7954177 316.85375,48.54625 C316.95125,48.2970819 317,48.0316681 317,47.75 C317,46.818329 316.691253,46.0437533 316.07375,45.42625 C315.456247,44.8087467 314.681671,44.5 313.75,44.5 C312.818329,44.5 312.043753,44.8087467 311.42625,45.42625 C310.808747,46.0437533 310.5,46.818329 310.5,47.75 C310.5,48.0316681 310.54875,48.2970819 310.64625,48.54625 C310.74375,48.7954177 310.879165,49.0770819 311.0525,49.39125 C311.225836,49.7054184 311.345,49.9383326 311.41,50.09 C311.475,50.2200007 311.5075,50.523331 311.5075,51 L304,51 L304,31.5 L311.5075,31.5 C311.5075,31.0233322 311.475,30.72 311.41,30.59 C311.345,30.4383322 311.225836,30.2054177 311.0525,29.89125 C310.879165,29.5770822 310.74375,29.2954177 310.64625,29.04625 C310.54875,28.7970822 310.5,28.5316678 310.5,28.25 Z" id="Page-1"></path>
        </g>
    </g>
</svg>