<?xml version="1.0" encoding="UTF-8"?>
<svg width="18px" height="18px" viewBox="0 0 18 18" version="1.1" xmlns="http://www.w3.org/2000/svg" xmlns:xlink="http://www.w3.org/1999/xlink">
    <!-- Generator: Sketch 48.2 (47327) - http://www.bohemiancoding.com/sketch -->
    <title>Page 1</title>
    <desc>Created with Sketch.</desc>
    <defs></defs>
    <g id="Settings" stroke="none" stroke-width="1" fill="none" fill-rule="evenodd" transform="translate(-32.000000, -271.000000)">
        <path d="M41,271 C43.468763,271 45.585929,271.781242 47.351564,273.34375 C49.117196,274.906258 50,276.796864 50,279.015625 C50,280.390633 49.507817,281.562496 48.523436,282.53125 C47.539058,283.500004 46.359383,283.984375 44.984375,283.984375 L43.203125,283.984375 C42.796874,283.984375 42.445313,284.132812 42.148436,284.429686 C41.851562,284.726563 41.703125,285.078124 41.703125,285.484375 C41.703125,285.921877 41.828123,286.265624 42.078125,286.515625 C42.359375,286.796876 42.5,287.124998 42.5,287.5 C42.5,287.937502 42.359375,288.296874 42.078125,288.578125 C41.796875,288.859376 41.437502,289 41,289 C38.499986,289 36.375008,288.125009 34.625,286.375 C32.8749914,284.624992 32,282.500014 32,280 C32,277.499986 32.8749914,275.375008 34.625,273.625 C36.375008,271.874992 38.499986,271 41,271 Z M34.7880435,279.951087 C35.1141321,280.244565 35.4891294,280.391304 35.9130435,280.391304 C36.3369576,280.391304 36.7038038,280.244565 37.0135885,279.951087 C37.3233701,279.657609 37.4782609,279.282611 37.4782609,278.826087 C37.4782609,278.369563 37.3233701,277.994565 37.0135885,277.701087 C36.7038038,277.407609 36.3369576,277.26087 35.9130435,277.26087 C35.4891294,277.26087 35.1222841,277.407609 34.8125,277.701087 C34.5027159,277.994565 34.3478261,278.369563 34.3478261,278.826087 C34.3478261,279.282611 34.4945637,279.657609 34.7880435,279.951087 Z M37.1358696,276.038043 C37.4619576,276.331522 37.8369555,276.478261 38.2608696,276.478261 C38.6847837,276.478261 39.0516299,276.32337 39.3614146,276.013589 C39.6711962,275.703804 39.826087,275.336958 39.826087,274.913043 C39.826087,274.489129 39.6711962,274.122283 39.3614146,273.812498 C39.0516299,273.502717 38.6847837,273.347826 38.2608696,273.347826 C37.8369555,273.347826 37.4701092,273.502717 37.1603245,273.812498 C36.850543,274.122283 36.6956522,274.489129 36.6956522,274.913043 C36.6956522,275.336958 36.8423913,275.711955 37.1358696,276.038043 Z M42.6141304,276.038043 C42.9402184,276.331522 43.3152163,276.478261 43.7391304,276.478261 C44.1630445,276.478261 44.5298908,276.32337 44.8396755,276.013589 C45.149457,275.703804 45.3043478,275.336958 45.3043478,274.913043 C45.3043478,274.489129 45.149457,274.122283 44.8396755,273.812498 C44.5298908,273.502717 44.1630445,273.347826 43.7391304,273.347826 C43.3152163,273.347826 42.9483701,273.502717 42.6385854,273.812498 C42.3288038,274.122283 42.173913,274.489129 42.173913,274.913043 C42.173913,275.336958 42.3206522,275.711955 42.6141304,276.038043 Z M45.7445652,279.951087 C46.0706532,280.244565 46.4456511,280.391304 46.8695652,280.391304 C47.2934793,280.391304 47.6603256,280.244565 47.9701103,279.951087 C48.2798918,279.657609 48.4347826,279.282611 48.4347826,278.826087 C48.4347826,278.369563 48.2798918,277.994565 47.9701103,277.701087 C47.6603256,277.407609 47.2934793,277.26087 46.8695652,277.26087 C46.4456511,277.26087 46.0788049,277.407609 45.7690202,277.701087 C45.4592386,277.994565 45.3043478,278.369563 45.3043478,278.826087 C45.3043478,279.282611 45.451087,279.657609 45.7445652,279.951087 Z" id="Page-1" fill="#BBBBBB"></path>
    </g>
</svg>