<?xml version="1.0" encoding="UTF-8"?>
<svg width="23px" height="24px" viewBox="0 0 23 24" version="1.1" xmlns="http://www.w3.org/2000/svg" xmlns:xlink="http://www.w3.org/1999/xlink">
    <!-- Generator: Sketch 48.2 (47327) - http://www.bohemiancoding.com/sketch -->
    <title>Page 1</title>
    <desc>Created with Sketch.</desc>
    <defs>
        <linearGradient x1="53.0632198%" y1="0%" x2="53.0632198%" y2="93.9356361%" id="linearGradient-1">
            <stop stop-color="#7466FF" offset="0%"></stop>
            <stop stop-color="#5646F5" offset="100%"></stop>
        </linearGradient>
    </defs>
    <g id="Settings" stroke="none" stroke-width="1" fill="none" fill-rule="evenodd" transform="translate(-128.000000, -617.000000)">
        <g id="down-nav-copy" transform="translate(-1.000000, 596.000000)" fill="url(#linearGradient-1)">
            <path d="M130.473041,21 C130.07409,21 129.72885,21.1474474 129.437309,21.4423452 C129.145768,21.7372401 129,22.0864573 129,22.49 L129,43.3500001 C129,43.7535437 129.145768,44.1027592 129.437309,44.3976564 C129.72885,44.6925537 130.07409,44.8400002 130.473041,44.8400002 L149.622569,44.8400002 C150.021519,44.8400002 150.366761,44.6925537 150.658299,44.3976564 C150.949841,44.1027592 151.09561,43.7535437 151.09561,43.3500001 L151.09561,22.49 C151.09561,22.0864573 150.949841,21.7372401 150.658299,21.4423452 C150.366761,21.1474474 150.021519,21 149.622569,21 L130.473041,21 Z M148.188293,29.1404879 L148.188293,41.9326831 L143.536585,41.9326831 L143.536585,29.1404879 L148.188293,29.1404879 Z M142.373659,25.6517073 L142.373659,41.9326831 L137.721951,41.9326831 L137.721951,25.6517073 L142.373659,25.6517073 Z M136.559024,34.3736586 L136.559024,41.3512196 L131.907317,41.3512196 L131.907317,34.3736586 L136.559024,34.3736586 Z" id="Page-1"></path>
        </g>
    </g>
</svg>