<?xml version="1.0" encoding="UTF-8"?>
<svg width="23px" height="24px" viewBox="0 0 23 24" version="1.1" xmlns="http://www.w3.org/2000/svg" xmlns:xlink="http://www.w3.org/1999/xlink">
    <!-- Generator: Sketch 48.2 (47327) - http://www.bohemiancoding.com/sketch -->
    <title>Page 1</title>
    <desc>Created with Sketch.</desc>
    <defs></defs>
    <g id="Home" stroke="none" stroke-width="1" fill="none" fill-rule="evenodd" transform="translate(-129.000000, -625.000000)">
        <g id="down-nav" transform="translate(0.000000, 597.000000)" fill="#5C5C5C">
            <path d="M130.473041,28 C130.07409,28 129.72885,28.1474474 129.437309,28.4423452 C129.145768,28.7372401 129,29.0864573 129,29.49 L129,50.3500001 C129,50.7535437 129.145768,51.1027592 129.437309,51.3976564 C129.72885,51.6925537 130.07409,51.8400002 130.473041,51.8400002 L149.622569,51.8400002 C150.021519,51.8400002 150.366761,51.6925537 150.658299,51.3976564 C150.949841,51.1027592 151.09561,50.7535437 151.09561,50.3500001 L151.09561,29.49 C151.09561,29.0864573 150.949841,28.7372401 150.658299,28.4423452 C150.366761,28.1474474 150.021519,28 149.622569,28 L130.473041,28 Z M148.188293,36.1404879 L148.188293,48.9326831 L143.536585,48.9326831 L143.536585,36.1404879 L148.188293,36.1404879 Z M142.373659,32.6517073 L142.373659,48.9326831 L137.721951,48.9326831 L137.721951,32.6517073 L142.373659,32.6517073 Z M136.559024,41.3736586 L136.559024,48.3512196 L131.907317,48.3512196 L131.907317,41.3736586 L136.559024,41.3736586 Z" id="Page-1"></path>
        </g>
    </g>
</svg>