<?xml version="1.0" encoding="UTF-8"?>
<svg width="43px" height="43px" viewBox="0 0 43 43" version="1.1" xmlns="http://www.w3.org/2000/svg" xmlns:xlink="http://www.w3.org/1999/xlink">
    <!-- Generator: Sketch 48.2 (47327) - http://www.bohemiancoding.com/sketch -->
    <title>Page 1</title>
    <desc>Created with Sketch.</desc>
    <defs></defs>
    <g id="Settings-Copy" stroke="none" stroke-width="1" fill="none" fill-rule="evenodd" transform="translate(-35.000000, -800.000000)">
        <path d="M73.1963153,800 L39.8036876,800 C38.466732,800 37.331892,800.474144 36.3991323,801.42245 C35.4663728,802.370755 35,803.497822 35,804.803685 L35,838.24295 C35,839.548814 35.4663728,840.668108 36.3991323,841.600868 C37.331892,842.533627 38.466732,843 39.8036876,843 L56.499997,843 L56.499997,826.303688 L51.7429531,826.303688 L51.7429531,820.380697 L56.499997,820.380697 L56.499997,815.483731 C56.499997,812.903095 57.2384225,810.788873 58.7152913,809.140998 C60.1921602,807.493123 62.4540714,806.669194 65.5010846,806.669194 L69.791757,806.669194 L69.791757,812.918658 L66.9468517,812.918658 C65.7653602,812.918658 64.9258868,813.283982 64.4284195,814.014641 C63.9309462,814.745306 63.6822156,815.514821 63.6822156,816.32321 L63.6822156,820.380697 L69.791757,820.380697 L68.4392595,826.303688 L63.6822156,826.303688 L63.6822156,843 L73.1963153,843 C74.533268,843 75.6681068,842.533627 76.6008677,841.600868 C77.5336285,840.668108 78,839.548814 78,838.24295 L78,804.803685 C78,803.497822 77.5336285,802.370755 76.6008677,801.42245 C75.6681068,800.474144 74.533268,800 73.1963153,800 Z" id="Page-1" fill="#363636"></path>
    </g>
</svg>