<?xml version="1.0" encoding="UTF-8"?>
<svg width="18px" height="16px" viewBox="0 0 18 16" version="1.1" xmlns="http://www.w3.org/2000/svg" xmlns:xlink="http://www.w3.org/1999/xlink">
    <!-- Generator: Sketch 48.2 (47327) - http://www.bohemiancoding.com/sketch -->
    <title>Page 1</title>
    <desc>Created with Sketch.</desc>
    <defs></defs>
    <g id="Settings" stroke="none" stroke-width="1" fill="none" fill-rule="evenodd" transform="translate(-188.000000, -171.000000)">
        <path d="M206,176.394077 C205.976562,174.96051 205.466802,173.703117 204.470702,172.621867 C203.474604,171.540618 202.296883,171 200.9375,171 C199.343742,171 198.031256,171.716774 197,173.150342 C195.968744,171.716774 194.656258,171 193.0625,171 C191.703117,171 190.525396,171.540618 189.529297,172.621867 C188.533198,173.703117 188.023438,174.96051 188,176.394077 C188,176.418376 188,176.436598 188,176.448748 C188,176.460896 188,176.46697 188,176.46697 C188,176.491269 188,176.503417 188,176.503417 C188,176.527715 188.005859,176.564162 188.017578,176.612756 C188.029297,176.661351 188.035156,176.697797 188.035156,176.722096 C188.058594,177.718303 188.246092,178.671978 188.597656,179.583145 C188.949221,180.494309 189.37695,181.277902 189.880859,181.933941 C190.384768,182.58998 190.976559,183.215639 191.65625,183.810935 C192.335941,184.406229 192.95117,184.886103 193.501952,185.250569 C194.052736,185.615036 194.62695,185.943051 195.224611,186.234624 C195.822269,186.526197 196.226562,186.714502 196.4375,186.799544 C196.648438,186.884587 196.812499,186.951404 196.929688,187 C197.046876,186.951404 197.210938,186.890661 197.421875,186.817768 C197.632812,186.744874 198.042965,186.55657 198.652344,186.252847 C199.261722,185.949125 199.847654,185.615036 200.410156,185.250569 C200.972658,184.886103 201.599605,184.412303 202.291014,183.829157 C202.982426,183.246011 203.580075,182.620352 204.083986,181.952163 C204.587893,181.283976 205.021482,180.494309 205.384765,179.583145 C205.74805,178.671978 205.941406,177.718303 205.964844,176.722096 C205.964844,176.697797 205.970703,176.661351 205.982423,176.612756 C205.994141,176.564162 206,176.527715 206,176.503417 C206,176.503417 206,176.491269 206,176.46697 C206,176.442672 206,176.430524 206,176.430524 C206,176.430524 206,176.418376 206,176.394077 Z" id="Page-1" fill="#BBBBBB"></path>
    </g>
</svg>