<?xml version="1.0" encoding="UTF-8"?>
<svg width="43px" height="43px" viewBox="0 0 43 43" version="1.1" xmlns="http://www.w3.org/2000/svg" xmlns:xlink="http://www.w3.org/1999/xlink">
    <!-- Generator: Sketch 48.2 (47327) - http://www.bohemiancoding.com/sketch -->
    <title>Page 1</title>
    <desc>Created with Sketch.</desc>
    <defs></defs>
    <g id="Settings-Copy" stroke="none" stroke-width="1" fill="none" fill-rule="evenodd" transform="translate(-192.000000, -697.000000)">
        <path d="M213.5,697 C210.528439,697 207.739001,697.561374 205.131604,698.684134 C202.524207,699.806894 200.251872,701.337902 198.314531,703.277214 C196.377192,705.216525 194.840453,707.491172 193.704268,710.101221 C192.568084,712.711271 192,715.503545 192,718.47813 C192,721.452714 192.568084,724.244989 193.704268,726.855038 C194.840453,729.465087 196.377192,731.747024 198.314531,733.700916 C200.251872,735.654808 202.524207,737.193111 205.131604,738.31587 C207.739001,739.438629 210.528439,740 213.5,740 C216.471561,740 219.260999,739.438629 221.868396,738.31587 C224.475793,737.193111 226.748128,735.654808 228.685469,733.700916 C230.62281,731.747024 232.159544,729.465087 233.295729,726.855038 C234.431919,724.244989 235,721.452714 235,718.47813 C235,715.503545 234.431919,712.711271 233.295729,710.101221 C232.159544,707.491172 230.62281,705.216525 228.685469,703.277214 C226.748128,701.337902 224.475793,699.806894 221.868396,698.684134 C219.260999,697.561374 216.471561,697 213.5,697 Z M213.5,735.494405 C211.140233,735.494405 208.933448,735.049683 206.879572,734.160223 C204.825702,733.270764 203.026772,732.060539 201.482721,730.529504 C199.938675,728.998468 198.722398,727.197708 197.833843,725.127163 C196.945287,723.056617 196.501016,720.840297 196.501016,718.47813 C196.501016,716.145122 196.945287,713.943383 197.833843,711.872837 C198.722398,709.802298 199.938675,707.994248 201.482721,706.448626 C203.026772,704.90301 204.825702,703.685495 206.879572,702.796036 C208.933448,701.906578 211.140233,701.461857 213.5,701.461857 C215.859767,701.461857 218.066552,701.906578 220.120428,702.796036 C222.174298,703.685495 223.973228,704.90301 225.517279,706.448626 C227.061325,707.994248 228.277602,709.802298 229.166157,711.872837 C230.054712,713.943383 230.498981,716.145122 230.498981,718.47813 C230.498981,720.840297 230.054712,723.056617 229.166157,725.127163 C228.277602,727.197708 227.061325,728.998468 225.517279,730.529504 C223.973228,732.060539 222.174298,733.270764 220.120428,734.160223 C218.066552,735.049683 215.859767,735.494405 213.5,735.494405 Z M219.093496,717.909465 C220.025747,717.909465 220.81961,717.530355 221.4751,716.772125 C222.130591,716.0139 222.458331,715.095292 222.458331,714.016278 C222.458331,712.937265 222.130591,712.011367 221.4751,711.238556 C220.81961,710.465751 220.025747,710.079351 219.093496,710.079351 C218.161245,710.079351 217.367382,710.465751 216.711892,711.238556 C216.056401,712.011367 215.728661,712.937265 215.728661,714.016278 C215.728661,715.095292 216.056401,716.0139 216.711892,716.772125 C217.367382,717.530355 218.161245,717.909465 219.093496,717.909465 Z M207.906504,717.909465 C208.838761,717.909465 209.632618,717.530355 210.288108,716.772125 C210.943599,716.0139 211.271339,715.095292 211.271339,714.016278 C211.271339,712.937265 210.943599,712.011367 210.288108,711.238556 C209.632618,710.465751 208.838761,710.079351 207.906504,710.079351 C206.974247,710.079351 206.18039,710.465751 205.5249,711.238556 C204.869409,712.011367 204.541669,712.937265 204.541669,714.016278 C204.541669,715.095292 204.869409,716.0139 205.5249,716.772125 C206.18039,717.530355 206.974247,717.909465 207.906504,717.909465 Z M213.5,721.277722 C209.683586,721.277722 207.003395,722.152584 205.45935,723.902341 C203.915304,725.652098 203.114159,726.585286 203.055892,726.701934 C202.851964,727.11021 202.822833,727.53306 202.968499,727.970496 C203.114159,728.407938 203.39092,728.728721 203.79878,728.932862 C203.91531,728.991183 204.039127,729.03493 204.170222,729.06409 C204.301323,729.093251 204.425135,729.107837 204.541669,729.107837 C204.862126,729.107837 205.160735,729.02764 205.437501,728.867245 C205.714262,728.706851 205.925472,728.480845 206.071138,728.189217 C206.071138,728.189217 206.610088,727.598683 207.688011,726.417601 C208.765928,725.236515 210.703241,724.64598 213.5,724.64598 C216.267628,724.64598 218.190376,725.221935 219.268293,726.373855 C220.34621,727.525776 220.899731,728.130891 220.928862,728.189217 C221.161926,728.597493 221.496948,728.881826 221.93394,729.04222 C222.370938,729.202614 222.793359,729.166158 223.20122,728.932862 C223.60908,728.728721 223.885841,728.407938 224.031501,727.970496 C224.177167,727.53306 224.148036,727.11021 223.944108,726.701934 C223.885841,726.585286 223.091979,725.652098 221.562499,723.902341 C220.033019,722.152584 217.345545,721.277722 213.5,721.277722 Z" id="Page-1" fill="#363636"></path>
    </g>
</svg>