<?xml version="1.0" encoding="UTF-8"?>
<svg width="24px" height="24px" viewBox="0 0 24 24" version="1.1" xmlns="http://www.w3.org/2000/svg" xmlns:xlink="http://www.w3.org/1999/xlink">
    <!-- Generator: Sketch 48.2 (47327) - http://www.bohemiancoding.com/sketch -->
    <title>Page 1</title>
    <desc>Created with Sketch.</desc>
    <defs>
        <linearGradient x1="53.0632198%" y1="0%" x2="53.0632198%" y2="93.9356361%" id="linearGradient-1">
            <stop stop-color="#7466FF" offset="0%"></stop>
            <stop stop-color="#5646F5" offset="100%"></stop>
        </linearGradient>
    </defs>
    <g id="Settings-Copy" stroke="none" stroke-width="1" fill="none" fill-rule="evenodd" transform="translate(-222.000000, -917.000000)">
        <g id="down-nav-copy-2" transform="translate(-1.000000, 895.000000)" fill="url(#linearGradient-1)">
            <path d="M244.089165,35.1735372 L246.792905,37.1294336 C247.02301,37.359539 247.061362,37.6279929 246.907957,37.9348027 L244.434324,42.0191745 C244.280919,42.3259835 244.050817,42.4218597 243.744007,42.3068063 L240.637584,41.0987527 C239.678806,41.7507206 238.988497,42.1534014 238.566635,42.3068063 L238.106424,45.4707563 C238.029723,45.7775651 237.818792,45.9309672 237.473634,45.9309672 L232.583893,45.9309672 C232.238735,45.9309672 232.027803,45.7775651 231.951103,45.4707563 L231.490892,42.3068063 C230.915625,42.0767008 230.225316,41.67402 229.419943,41.0987527 L226.313519,42.3068063 C226.006711,42.4602108 225.776607,42.3643345 225.623203,42.0191745 L223.149569,37.9348027 C222.957814,37.5896445 222.996164,37.3211906 223.264622,37.1294336 L225.853308,35.1735372 C225.853308,35.0584845 225.843721,34.8667312 225.824545,34.5982736 C225.805369,34.329816 225.795782,34.1188885 225.795782,33.9654836 C225.795782,33.8120787 225.805369,33.6011512 225.824545,33.3326936 C225.843721,33.064236 225.853308,32.8724827 225.853308,32.75743 L223.207096,30.8015336 C222.976989,30.5714281 222.938638,30.3029742 223.092043,29.9961645 L225.565676,25.9117927 C225.719081,25.604983 225.949184,25.5091082 226.255993,25.6241609 L229.362416,26.8322145 C230.321194,26.1802466 231.011503,25.7775658 231.433366,25.6241609 L231.893576,22.4602109 C231.970277,22.1534012 232.181208,22 232.526366,22 L237.416107,22 C237.761266,22 237.972197,22.1534012 238.048897,22.4602109 L238.451582,25.6241609 C239.026849,25.8542663 239.717158,26.2569472 240.522531,26.8322145 L243.571428,25.6241609 C243.878238,25.470756 244.127514,25.5666345 244.319271,25.9117927 L246.792905,29.9961645 C246.984662,30.3413227 246.946309,30.6097766 246.677852,30.8015336 L244.089165,32.75743 C244.089165,32.8724827 244.098753,33.064236 244.117931,33.3326936 C244.137105,33.6011512 244.146692,33.8120787 244.146692,33.9654836 C244.146692,34.5407509 244.127518,34.9434318 244.089165,35.1735372 Z M231.893576,36.9568545 C232.737301,37.7622273 233.753591,38.1649081 234.942474,38.1649081 C236.131357,38.1649081 237.147646,37.7622273 237.991371,36.9568545 C238.835096,36.1514817 239.256951,35.1543667 239.256951,33.9654836 C239.256951,32.7766005 238.835096,31.7794855 237.991371,30.9741127 C237.147646,30.1687399 236.131357,29.7660591 234.942474,29.7660591 C233.753591,29.7660591 232.746888,30.1687399 231.922341,30.9741127 C231.097791,31.7794855 230.685523,32.7766005 230.685523,33.9654836 C230.685523,35.1543667 231.088204,36.1514817 231.893576,36.9568545 Z" id="Page-1"></path>
        </g>
    </g>
</svg>