<?xml version="1.0" encoding="UTF-8"?>
<svg width="24px" height="24px" viewBox="0 0 24 24" version="1.1" xmlns="http://www.w3.org/2000/svg" xmlns:xlink="http://www.w3.org/1999/xlink">
    <!-- Generator: Sketch 48.2 (47327) - http://www.bohemiancoding.com/sketch -->
    <title>Page 1</title>
    <desc>Created with Sketch.</desc>
    <defs></defs>
    <g id="Home" stroke="none" stroke-width="1" fill="none" fill-rule="evenodd" transform="translate(-175.000000, -625.000000)">
        <g id="down-nav" transform="translate(-2.000000, 597.000000)" fill="#5C5C5C">
            <path d="M198.089165,41.1735372 L200.792905,43.1294336 C201.02301,43.359539 201.061362,43.6279929 200.907957,43.9348027 L198.434324,48.0191745 C198.280919,48.3259835 198.050817,48.4218597 197.744007,48.3068063 L194.637584,47.0987527 C193.678806,47.7507206 192.988497,48.1534014 192.566635,48.3068063 L192.106424,51.4707563 C192.029723,51.7775651 191.818792,51.9309672 191.473634,51.9309672 L186.583893,51.9309672 C186.238735,51.9309672 186.027803,51.7775651 185.951103,51.4707563 L185.490892,48.3068063 C184.915625,48.0767008 184.225316,47.67402 183.419943,47.0987527 L180.313519,48.3068063 C180.006711,48.4602108 179.776607,48.3643345 179.623203,48.0191745 L177.149569,43.9348027 C176.957814,43.5896445 176.996164,43.3211906 177.264622,43.1294336 L179.853308,41.1735372 C179.853308,41.0584845 179.843721,40.8667312 179.824545,40.5982736 C179.805369,40.329816 179.795782,40.1188885 179.795782,39.9654836 C179.795782,39.8120787 179.805369,39.6011512 179.824545,39.3326936 C179.843721,39.064236 179.853308,38.8724827 179.853308,38.75743 L177.207096,36.8015336 C176.976989,36.5714281 176.938638,36.3029742 177.092043,35.9961645 L179.565676,31.9117927 C179.719081,31.604983 179.949184,31.5091082 180.255993,31.6241609 L183.362416,32.8322145 C184.321194,32.1802466 185.011503,31.7775658 185.433366,31.6241609 L185.893576,28.4602109 C185.970277,28.1534012 186.181208,28 186.526366,28 L191.416107,28 C191.761266,28 191.972197,28.1534012 192.048897,28.4602109 L192.451582,31.6241609 C193.026849,31.8542663 193.717158,32.2569472 194.522531,32.8322145 L197.571428,31.6241609 C197.878238,31.470756 198.127514,31.5666345 198.319271,31.9117927 L200.792905,35.9961645 C200.984662,36.3413227 200.946309,36.6097766 200.677852,36.8015336 L198.089165,38.75743 C198.089165,38.8724827 198.098753,39.064236 198.117931,39.3326936 C198.137105,39.6011512 198.146692,39.8120787 198.146692,39.9654836 C198.146692,40.5407509 198.127518,40.9434318 198.089165,41.1735372 Z M185.893576,42.9568545 C186.737301,43.7622273 187.753591,44.1649081 188.942474,44.1649081 C190.131357,44.1649081 191.147646,43.7622273 191.991371,42.9568545 C192.835096,42.1514817 193.256951,41.1543667 193.256951,39.9654836 C193.256951,38.7766005 192.835096,37.7794855 191.991371,36.9741127 C191.147646,36.1687399 190.131357,35.7660591 188.942474,35.7660591 C187.753591,35.7660591 186.746888,36.1687399 185.922341,36.9741127 C185.097791,37.7794855 184.685523,38.7766005 184.685523,39.9654836 C184.685523,41.1543667 185.088204,42.1514817 185.893576,42.9568545 Z" id="Page-1"></path>
        </g>
    </g>
</svg>