<?xml version="1.0" encoding="UTF-8"?>
<svg width="43px" height="43px" viewBox="0 0 43 43" version="1.1" xmlns="http://www.w3.org/2000/svg" xmlns:xlink="http://www.w3.org/1999/xlink">
    <!-- Generator: Sketch 48.2 (47327) - http://www.bohemiancoding.com/sketch -->
    <title>Page 1</title>
    <desc>Created with Sketch.</desc>
    <defs></defs>
    <g id="Settings-Copy" stroke="none" stroke-width="1" fill="none" fill-rule="evenodd" transform="translate(-33.000000, -697.000000)">
        <path d="M54.5,697 C51.5284385,697 48.7390012,697.561374 46.1316043,698.684134 C43.5242073,699.806894 41.251872,701.337902 39.3145311,703.277214 C37.3771925,705.216525 35.8404527,707.491172 34.7042683,710.101221 C33.5680838,712.711271 33,715.503545 33,718.47813 C33,721.452714 33.5680838,724.244989 34.7042683,726.855038 C35.8404527,729.465087 37.3771925,731.739734 39.3145311,733.679046 C41.251872,735.618355 43.5242073,737.156658 46.1316043,738.293998 C48.7390012,739.431338 51.5284385,740 54.5,740 C57.4715615,740 60.2609988,739.431338 62.8683957,738.293998 C65.4757927,737.156658 67.748128,735.618355 69.6854689,733.679046 C71.6228098,731.739734 73.1595445,729.465087 74.2957289,726.855038 C75.431919,724.244989 76,721.452714 76,718.47813 C76,715.503545 75.431919,712.711271 74.2957289,710.101221 C73.1595445,707.491172 71.6228098,705.216525 69.6854689,703.277214 C67.748128,701.337902 65.4757927,699.806894 62.8683957,698.684134 C60.2609988,697.561374 57.4715615,697 54.5,697 Z M54.5,735.494405 C52.1402327,735.494405 49.9334475,735.049683 47.8795718,734.160223 C45.8257016,733.270764 44.0267718,732.060539 42.4827208,730.529504 C40.9386754,728.998468 39.7223977,727.197708 38.8338429,725.127163 C37.9452869,723.056617 37.5010163,720.840297 37.5010163,718.47813 C37.5010163,716.145122 37.9452869,713.943383 38.8338429,711.872837 C39.7223977,709.802298 40.9386754,707.994248 42.4827208,706.448626 C44.0267718,704.90301 45.8257016,703.685495 47.8795718,702.796036 C49.9334475,701.906578 52.1402327,701.461857 54.5,701.461857 C56.8597673,701.461857 59.0665525,701.906578 61.1204282,702.796036 C63.1742984,703.685495 64.9732282,704.90301 66.5172792,706.448626 C68.0613246,707.994248 69.2776023,709.802298 70.1661571,711.872837 C71.0547119,713.943383 71.4989809,716.145122 71.4989809,718.47813 C71.4989809,720.840297 71.0547119,723.056617 70.1661571,725.127163 C69.2776023,727.197708 68.0613246,728.998468 66.5172792,730.529504 C64.9732282,732.060539 63.1742984,733.270764 61.1204282,734.160223 C59.0665525,735.049683 56.8597673,735.494405 54.5,735.494405 Z M48.9065041,717.909465 C49.8387608,717.909465 50.6326178,717.530355 51.2881084,716.772125 C51.943599,716.0139 52.2713387,715.095292 52.2713387,714.016278 C52.2713387,712.937265 51.943599,712.011367 51.2881084,711.238556 C50.6326178,710.465751 49.8387608,710.079351 48.9065041,710.079351 C47.9742473,710.079351 47.1803904,710.465751 46.5248998,711.238556 C45.8694092,712.011367 45.5416695,712.937265 45.5416695,714.016278 C45.5416695,715.095292 45.8694092,716.0139 46.5248998,716.772125 C47.1803904,717.530355 47.9742473,717.909465 48.9065041,717.909465 Z M60.0934959,717.909465 C61.0257471,717.909465 61.8196096,717.530355 62.4751002,716.772125 C63.1305908,716.0139 63.4583305,715.095292 63.4583305,714.016278 C63.4583305,712.937265 63.1305908,712.011367 62.4751002,711.238556 C61.8196096,710.465751 61.0257471,710.079351 60.0934959,710.079351 C59.1612447,710.079351 58.3673822,710.465751 57.7118916,711.238556 C57.056401,712.011367 56.7286613,712.937265 56.7286613,714.016278 C56.7286613,715.095292 57.056401,716.0139 57.7118916,716.772125 C58.3673822,717.530355 59.1612447,717.909465 60.0934959,717.909465 Z M64.2012195,721.496438 C63.7933586,721.263142 63.3709378,721.219396 62.9339403,721.36521 C62.4969484,721.511024 62.1764914,721.78806 61.9725638,722.196336 C61.9142963,722.283829 61.3462097,722.903524 60.2682927,724.055445 C59.1903757,725.207365 57.2676282,725.78332 54.5,725.78332 C51.7615027,725.78332 49.8460436,725.207365 48.7535555,724.055445 C47.661073,722.903524 47.0857037,722.283829 47.0274362,722.196336 C46.8235086,721.78806 46.5030516,721.511024 46.0660597,721.36521 C45.6290622,721.219396 45.2066414,721.248556 44.7987805,721.452697 C44.3909195,721.656838 44.114159,721.984911 43.9684987,722.436928 C43.8228329,722.88895 43.8519638,723.31909 44.0558915,723.727366 C44.114159,723.844014 44.9153042,724.769912 46.4593496,726.505089 C48.003395,728.24026 50.6835857,729.107837 54.5,729.107837 C58.3455452,729.107837 61.0330187,728.24026 62.5624986,726.505089 C64.0919785,724.769912 64.885841,723.844014 64.9441085,723.727366 C65.1480362,723.31909 65.1771671,722.89624 65.0315013,722.458804 C64.885841,722.021362 64.6090805,721.700579 64.2012195,721.496438 Z" id="Page-1" fill="#363636"></path>
    </g>
</svg>