<?xml version="1.0" encoding="UTF-8"?>
<svg width="43px" height="43px" viewBox="0 0 43 43" version="1.1" xmlns="http://www.w3.org/2000/svg" xmlns:xlink="http://www.w3.org/1999/xlink">
    <!-- Generator: Sketch 48.2 (47327) - http://www.bohemiancoding.com/sketch -->
    <title>Page 1</title>
    <desc>Created with Sketch.</desc>
    <defs></defs>
    <g id="Settings-Copy" stroke="none" stroke-width="1" fill="none" fill-rule="evenodd" transform="translate(-89.000000, -800.000000)">
        <path d="M129.3125,800 L91.6875,800 C90.9036417,800 90.2597683,800.251953 89.7558594,800.755859 C89.2519506,801.259766 89,801.903642 89,802.6875 L89,840.3125 C89,841.096358 89.2519506,841.740232 89.7558594,842.244141 C90.2597683,842.748049 90.9036417,843 91.6875,843 L129.3125,843 C130.096358,843 130.740234,842.748049 131.244141,842.244141 C131.748047,841.740232 132,841.096358 132,840.3125 L132,802.6875 C132,801.903642 131.748047,801.259766 131.244141,800.755859 C130.740234,800.251953 130.096358,800 129.3125,800 Z M126.121094,830.150391 C125.841142,830.934248 124.497408,831.522134 122.089844,831.914062 C122.089844,831.970054 122.089844,832.082031 122.089844,832.25 L122.005859,832.501953 L121.753906,833.257812 C121.697915,833.705733 121.389976,833.929688 120.830078,833.929688 C120.550127,833.929688 120.298179,833.901694 120.074219,833.845703 C119.402338,833.733726 118.842452,833.677734 118.394531,833.677734 C118.282554,833.677734 118.114585,833.691731 117.890625,833.719729 C117.666665,833.747722 117.470703,833.761719 117.302734,833.761719 C116.854814,833.81771 116.126959,834.181635 115.119141,834.853516 C113.831371,835.805342 112.291676,836.28125 110.5,836.28125 L110.332031,836.28125 L110.164062,836.28125 C108.708324,836.28125 107.308599,835.805342 105.964844,834.853516 C105.069009,834.181635 104.369141,833.81771 103.865234,833.761719 C103.585283,833.705727 103.193359,833.677734 102.689453,833.677734 C102.185547,833.677734 101.653648,833.733726 101.09375,833.845703 C100.757812,833.957681 100.505859,834.013672 100.337891,834.013672 C99.9459617,834.013672 99.6380226,833.789717 99.4140625,833.341797 C99.3020851,833.005859 99.2460938,832.753906 99.2460938,832.585938 C99.2460938,832.529946 99.2320972,832.431965 99.2041043,832.291989 C99.1761059,832.152019 99.1341164,832.054038 99.078125,831.998047 C96.558583,831.606118 95.1588577,831.018233 94.8789062,830.234375 L94.8789062,829.898438 C94.8789062,829.33854 95.102861,829.058594 95.5507812,829.058594 C98.1263146,828.666665 100.169916,826.931007 101.681641,823.851562 C101.905601,823.403642 101.961587,823.06771 101.849609,822.84375 C101.625649,822.339844 101.093755,822.031899 100.253906,821.919922 C99.9179688,821.807944 99.75,821.751953 99.75,821.751953 C98.3502532,821.192056 97.790361,820.576177 98.0703125,819.904297 C98.1263039,819.456377 98.4202465,819.120444 98.9521457,818.896484 C99.4840504,818.672524 99.9459617,818.644531 100.337891,818.8125 C100.841797,819.03646 101.289712,819.148438 101.681641,819.148438 C101.905601,819.148438 102.045571,819.120444 102.101562,819.064453 C102.101562,818.784502 102.07357,818.58854 102.017578,818.476562 C101.681641,815.28514 101.765625,813.073575 102.269531,811.841797 C102.773438,810.722002 103.417314,809.798179 104.201172,809.070312 C104.98503,808.342446 105.79687,807.824543 106.636719,807.516604 C107.476568,807.20866 108.162434,806.998696 108.694333,806.886719 C109.226238,806.774741 109.744141,806.71875 110.248047,806.71875 L110.835938,806.71875 C114.587257,806.71875 117.218745,808.426414 118.730469,811.841797 C119.234375,812.961592 119.374351,815.117171 119.150391,818.308594 L119.150391,818.896484 C119.206382,818.896484 119.262368,818.910481 119.318359,818.938479 C119.374351,818.966472 119.430337,818.980469 119.486328,818.980469 C119.654297,818.980469 120.074213,818.868491 120.746094,818.644531 C120.914062,818.532554 121.138017,818.476562 121.417969,818.476562 C121.641929,818.476562 121.865884,818.532554 122.089844,818.644531 C122.81771,818.8125 123.181641,819.232416 123.181641,819.904297 C123.181641,820.576177 122.621748,821.164062 121.501953,821.667969 C121.333984,821.667969 121.194009,821.695962 121.082031,821.751953 C120.018222,822.311851 119.458335,822.61979 119.402344,822.675781 C119.346352,822.955733 119.402344,823.291665 119.570312,823.683594 L119.570312,823.767578 C119.68229,824.103516 119.920247,824.579423 120.284177,825.195312 C120.648113,825.811202 121.319983,826.539057 122.299802,827.378906 C123.279627,828.218755 124.357416,828.750649 125.533203,828.974609 C126.037109,829.086587 126.289062,829.366533 126.289062,829.814453 C126.289062,829.926431 126.233071,830.038413 126.121094,830.150391 Z" id="Page-1" fill="#363636"></path>
    </g>
</svg>