<?xml version="1.0" encoding="UTF-8"?>
<svg width="10px" height="24px" viewBox="0 0 10 24" version="1.1" xmlns="http://www.w3.org/2000/svg" xmlns:xlink="http://www.w3.org/1999/xlink">
    <!-- Generator: Sketch 48.2 (47327) - http://www.bohemiancoding.com/sketch -->
    <title>Page 1</title>
    <desc>Created with Sketch.</desc>
    <defs></defs>
    <g id="Settings" stroke="none" stroke-width="1" fill="none" fill-rule="evenodd" transform="translate(-38.000000, -167.000000)">
        <path d="M46.4615385,182.609375 L46.4615385,170.375 C46.4615385,169.437494 46.1250031,168.640628 45.4519231,167.984375 C44.7788431,167.328122 43.9615446,167 43,167 C42.0384554,167 41.2211569,167.328122 40.5480769,167.984375 C39.8749966,168.640628 39.5384615,169.437494 39.5384615,170.375 L39.5384615,182.609375 C38.5128154,183.546881 38,184.718744 38,186.125 C38,187.500008 38.4807643,188.656245 39.4423077,189.59375 C40.4038511,190.531255 41.5897354,191 43,191 C44.4102646,191 45.5961477,190.531255 46.5576923,189.59375 C47.5192369,188.656245 48,187.500008 48,186.125 C48,184.718744 47.4871846,183.546881 46.4615385,182.609375 Z M45.4519231,188.515625 C44.7788431,189.171878 43.9615446,189.5 43,189.5 C42.0384554,189.5 41.2211569,189.171878 40.5480769,188.515625 C39.8749966,187.859372 39.5384615,187.062506 39.5384615,186.125 C39.5384615,185.187494 39.8910222,184.375004 40.5961538,183.6875 L41.0769231,183.21875 L41.0769231,170.375 C41.0769231,169.874999 41.2692277,169.437503 41.6538462,169.0625 C42.0384646,168.687497 42.4871785,168.5 43,168.5 C43.5128215,168.5 43.9615354,168.687497 44.3461538,169.0625 C44.7307723,169.437503 44.9230769,169.874999 44.9230769,170.375 L44.9230769,183.21875 L45.4038462,183.6875 C46.1089785,184.375004 46.4615385,185.187494 46.4615385,186.125 C46.4615385,187.062506 46.1250031,187.859372 45.4519231,188.515625 Z M44.1538462,183.78125 L44.1538462,171.125 L41.8461538,171.125 L41.8461538,183.78125 C40.8205077,184.187501 40.3076923,184.968743 40.3076923,186.125 C40.3076923,186.843755 40.5721126,187.460936 41.10096,187.976564 C41.6298092,188.49219 42.2628154,188.75 43,188.75 C43.7371846,188.75 44.3701908,188.49219 44.89904,187.976564 C45.4278862,187.460936 45.6923077,186.843755 45.6923077,186.125 C45.6923077,184.968743 45.1794923,184.187501 44.1538462,183.78125 Z" id="Page-1" fill="#BBBBBB"></path>
    </g>
</svg>