<?xml version="1.0" encoding="UTF-8"?>
<svg width="43px" height="43px" viewBox="0 0 43 43" version="1.1" xmlns="http://www.w3.org/2000/svg" xmlns:xlink="http://www.w3.org/1999/xlink">
    <!-- Generator: Sketch 48.2 (47327) - http://www.bohemiancoding.com/sketch -->
    <title>Page 1</title>
    <desc>Created with Sketch.</desc>
    <defs></defs>
    <g id="Settings-Copy" stroke="none" stroke-width="1" fill="none" fill-rule="evenodd" transform="translate(-86.000000, -697.000000)">
        <path d="M101.906504,717.909465 C102.838761,717.909465 103.632618,717.530355 104.288108,716.772125 C104.943599,716.0139 105.271339,715.095292 105.271339,714.016278 C105.271339,712.937265 104.943599,712.011367 104.288108,711.238556 C103.632618,710.465751 102.838761,710.079351 101.906504,710.079351 C100.974247,710.079351 100.18039,710.465751 99.5248998,711.238556 C98.8694092,712.011367 98.5416695,712.937265 98.5416695,714.016278 C98.5416695,715.095292 98.8694092,716.0139 99.5248998,716.772125 C100.18039,717.530355 100.974247,717.909465 101.906504,717.909465 Z M107.5,697 C104.528439,697 101.739001,697.561374 99.1316043,698.684134 C96.5242073,699.806894 94.251872,701.337902 92.3145311,703.277214 C90.3771925,705.216525 88.8404527,707.491172 87.7042683,710.101221 C86.5680838,712.711271 86,715.503545 86,718.47813 C86,721.452714 86.5680838,724.244989 87.7042683,726.855038 C88.8404527,729.465087 90.3771925,731.739734 92.3145311,733.679046 C94.251872,735.618355 96.5242073,737.156658 99.1316043,738.293998 C101.739001,739.431338 104.528439,740 107.5,740 C110.471561,740 113.260999,739.431338 115.868396,738.293998 C118.475793,737.156658 120.748128,735.618355 122.685469,733.679046 C124.62281,731.739734 126.159544,729.465087 127.295729,726.855038 C128.431919,724.244989 129,721.452714 129,718.47813 C129,715.503545 128.431919,712.711271 127.295729,710.101221 C126.159544,707.491172 124.62281,705.216525 122.685469,703.277214 C120.748128,701.337902 118.475793,699.806894 115.868396,698.684134 C113.260999,697.561374 110.471561,697 107.5,697 Z M107.5,735.494405 C105.140233,735.494405 102.933448,735.049683 100.879572,734.160223 C98.8257016,733.270764 97.0267718,732.060539 95.4827208,730.529504 C93.9386754,728.998468 92.7223977,727.197708 91.8338429,725.127163 C90.9452869,723.056617 90.5010163,720.840297 90.5010163,718.47813 C90.5010163,716.145122 90.9452869,713.943383 91.8338429,711.872837 C92.7223977,709.802298 93.9386754,707.994248 95.4827208,706.448626 C97.0267718,704.90301 98.8257016,703.685495 100.879572,702.796036 C102.933448,701.906578 105.140233,701.461857 107.5,701.461857 C109.859767,701.461857 112.066552,701.906578 114.120428,702.796036 C116.174298,703.685495 117.973228,704.90301 119.517279,706.448626 C121.061325,707.994248 122.277602,709.802298 123.166157,711.872837 C124.054712,713.943383 124.498981,716.145122 124.498981,718.47813 C124.498981,720.840297 124.054712,723.056617 123.166157,725.127163 C122.277602,727.197708 121.061325,728.998468 119.517279,730.529504 C117.973228,732.060539 116.174298,733.270764 114.120428,734.160223 C112.066552,735.049683 109.859767,735.494405 107.5,735.494405 Z M117.20122,721.496438 C116.793359,721.263142 116.370938,721.219396 115.93394,721.36521 C115.496948,721.511024 115.176491,721.78806 114.972564,722.196336 C114.914296,722.254663 114.34621,722.867068 113.268293,724.033575 C112.190376,725.200075 110.267628,725.78332 107.5,725.78332 C104.761503,725.78332 102.846044,725.207365 101.753556,724.055445 C100.661073,722.903524 100.085704,722.283829 100.027436,722.196336 C99.8235086,721.78806 99.5030516,721.511024 99.0660597,721.36521 C98.6290622,721.219396 98.2066414,721.248556 97.7987805,721.452697 C97.3909195,721.656838 97.114159,721.984911 96.9684987,722.436928 C96.8228329,722.88895 96.8519638,723.31909 97.0558915,723.727366 C97.114159,723.844014 97.9153042,724.769912 99.4593496,726.505089 C101.003395,728.24026 103.683586,729.107837 107.5,729.107837 C111.345545,729.107837 114.033019,728.24026 115.562499,726.505089 C117.091979,724.769912 117.885841,723.844014 117.944108,723.727366 C118.148036,723.31909 118.177167,722.89624 118.031501,722.458804 C117.885841,722.021362 117.60908,721.700579 117.20122,721.496438 Z M110.296748,715.678537 L115.890244,715.678537 C116.356372,715.678537 116.749662,715.518142 117.070125,715.197354 C117.390582,714.876571 117.550813,714.482881 117.550813,714.016278 C117.550813,713.549676 117.390582,713.148696 117.070125,712.813327 C116.749662,712.477958 116.356372,712.310279 115.890244,712.310279 L110.296748,712.310279 C109.83062,712.310279 109.43733,712.477958 109.116867,712.813327 C108.79641,713.148696 108.636179,713.549676 108.636179,714.016278 C108.636179,714.482881 108.79641,714.876571 109.116867,715.197354 C109.43733,715.518142 109.83062,715.678537 110.296748,715.678537 Z" id="Page-1" fill="#363636"></path>
    </g>
</svg>